<svg width="24" height="24" viewBox="0 0 24 24" fill="none" xmlns="http://www.w3.org/2000/svg">
<path d="M4 7C4 5.343 5.343 4 7 4H17C18.657 4 20 5.343 20 7V17C20 18.657 18.657 20 17 20H7C5.343 20 4 18.657 4 17V7ZM8.85 17.393V10.169H6.434V17.393H8.85ZM7.642 9.182C8.484 9.182 9.009 8.628 9.009 7.934C8.993 7.225 8.484 6.686 7.658 6.686C6.831 6.686 6.291 7.225 6.291 7.934C6.291 8.628 6.815 9.182 7.626 9.182H7.642ZM12.604 17.393V13.359C12.604 13.143 12.62 12.928 12.683 12.773C12.858 12.342 13.256 11.895 13.923 11.895C14.798 11.895 15.148 12.557 15.148 13.529V17.393H17.564V13.251C17.564 11.032 16.372 9.999 14.782 9.999C13.5 9.999 12.925 10.699 12.604 11.192V10.169H10.187C10.219 10.844 10.188 17.352 10.187 17.394L12.604 17.393Z" fill="currentColor" />
</svg>
