<svg width="24" height="24" viewBox="0 0 24 24" fill="none" xmlns="http://www.w3.org/2000/svg">
<path d="M12.001 4C7.582 4 4 7.582 4 11.999C4 15.276 5.97 18.09 8.789 19.327C8.765 18.768 8.784 18.098 8.927 17.491C9.082 16.841 9.957 13.131 9.957 13.131C9.957 13.131 9.702 12.62 9.702 11.865C9.702 10.679 10.389 9.794 11.244 9.794C11.973 9.794 12.323 10.341 12.323 10.995C12.323 11.726 11.857 12.821 11.618 13.834C11.417 14.683 12.043 15.375 12.879 15.375C14.396 15.375 15.417 13.428 15.417 11.122C15.417 9.369 14.236 8.056 12.088 8.056C9.661 8.056 8.15 9.866 8.15 11.887C8.15 12.584 8.354 13.076 8.677 13.456C8.824 13.631 8.845 13.702 8.791 13.902C8.753 14.049 8.665 14.404 8.628 14.544C8.575 14.747 8.411 14.819 8.228 14.745C7.11 14.288 6.59 13.065 6.59 11.688C6.59 9.416 8.507 6.691 12.307 6.691C15.362 6.691 17.373 8.901 17.373 11.273C17.373 14.412 15.627 16.757 13.055 16.757C12.191 16.757 11.379 16.289 11.101 15.759C11.101 15.759 10.636 17.603 10.538 17.958C10.368 18.574 10.036 19.192 9.733 19.672C10.469 19.89 11.233 20 12.001 20C16.419 20 20 16.418 20 11.999C20 7.582 16.419 4 12.001 4Z" fill="currentColor" />
</svg>
