<svg width="24" height="24" viewBox="0 0 24 24" fill="none" xmlns="http://www.w3.org/2000/svg">
<path d="M17.631 7.13598C17.514 7.07698 17.401 7.01198 17.29 6.94098C16.97 6.73298 16.676 6.48798 16.415 6.21098C15.763 5.47798 15.519 4.73398 15.429 4.21298H15.433C15.358 3.77998 15.389 3.50098 15.394 3.50098H12.421V14.79C12.421 14.942 12.421 15.092 12.415 15.24C12.415 15.258 12.413 15.275 12.412 15.295C12.412 15.303 12.412 15.311 12.41 15.32V15.326C12.346 16.149 11.87 16.886 11.14 17.294C10.765 17.503 10.342 17.613 9.91 17.613C8.526 17.613 7.403 16.503 7.403 15.134C7.403 13.764 8.526 12.655 9.91 12.655C10.173 12.654 10.433 12.695 10.682 12.775L10.686 9.80198C9.156 9.60798 7.614 10.051 6.432 11.024C5.919 11.462 5.489 11.983 5.159 12.566C5.033 12.779 4.56 13.632 4.503 15.018C4.467 15.805 4.707 16.62 4.822 16.956V16.964C4.894 17.162 5.173 17.839 5.629 18.409C5.996 18.867 6.43 19.269 6.916 19.602V19.595L6.923 19.602C8.362 20.563 9.958 20.5 9.958 20.5C10.234 20.489 11.159 20.5 12.21 20.011C13.375 19.468 14.038 18.661 14.038 18.661C14.462 18.178 14.799 17.628 15.035 17.034C15.304 16.34 15.394 15.507 15.394 15.174V9.18398C15.43 9.20598 15.91 9.51798 15.91 9.51798C15.91 9.51798 16.602 9.95298 17.681 10.237C18.456 10.439 19.499 10.481 19.499 10.481V7.58298C19.133 7.62198 18.391 7.50798 17.631 7.13598Z" fill="currentColor" />
</svg>
