<svg width="24" height="24" viewBox="0 0 24 24" fill="none" xmlns="http://www.w3.org/2000/svg">
<path d="M21.9684 6.5175C21.8801 6.17189 21.7109 5.85224 21.4747 5.58491C21.2385 5.31758 20.9421 5.11024 20.61 4.98C17.3962 3.73875 12.2812 3.75 12 3.75C11.7188 3.75 6.60375 3.73875 3.39 4.98C3.0579 5.11024 2.76153 5.31758 2.52534 5.58491C2.28915 5.85224 2.1199 6.17189 2.03156 6.5175C1.78875 7.45313 1.5 9.16313 1.5 12C1.5 14.8369 1.78875 16.5469 2.03156 17.4825C2.11977 17.8283 2.28895 18.1481 2.52515 18.4156C2.76136 18.6831 3.0578 18.8906 3.39 19.0209C6.46875 20.2088 11.2875 20.25 11.9381 20.25H12.0619C12.7125 20.25 17.5341 20.2088 20.61 19.0209C20.9422 18.8906 21.2386 18.6831 21.4748 18.4156C21.711 18.1481 21.8802 17.8283 21.9684 17.4825C22.2113 16.545 22.5 14.8369 22.5 12C22.5 9.16313 22.2113 7.45313 21.9684 6.5175ZM15.2081 12.3122L10.7081 15.3122C10.6516 15.3499 10.586 15.3715 10.5181 15.3748C10.4503 15.3781 10.3829 15.3629 10.323 15.3309C10.2631 15.2988 10.2131 15.2511 10.1782 15.1928C10.1434 15.1346 10.125 15.0679 10.125 15V9C10.125 8.9321 10.1434 8.86545 10.1782 8.80718C10.2131 8.74892 10.2631 8.70121 10.323 8.66916C10.3829 8.63711 10.4503 8.62191 10.5181 8.6252C10.586 8.62849 10.6516 8.65013 10.7081 8.68782L15.2081 11.6878C15.2596 11.722 15.3017 11.7685 15.3309 11.8229C15.3601 11.8774 15.3754 11.9382 15.3754 12C15.3754 12.0618 15.3601 12.1226 15.3309 12.1771C15.3017 12.2315 15.2596 12.278 15.2081 12.3122Z" fill="currentColor" />
</svg>
